<?xml version="1.0" standalone="no"?>
<!DOCTYPE svg PUBLIC "-//W3C//DTD SVG 20010904//EN"
 "http://www.w3.org/TR/2001/REC-SVG-20010904/DTD/svg10.dtd">
<svg version="1.0" xmlns="http://www.w3.org/2000/svg"
 width="1120.000000pt" height="1280.000000pt" viewBox="0 0 1120.000000 1280.000000"
 preserveAspectRatio="xMidYMid meet">
<g transform="translate(0.000000,1280.000000) scale(0.100000,-0.100000)"
fill="#000000" stroke="none">
<path d="M2975 12786 c-11 -8 -685 -267 -1497 -577 l-1478 -563 0 -90 c0 -61
4 -94 14 -105 7 -9 406 -619 886 -1356 835 -1281 3029 -4648 3418 -5243 l185
-284 -20 -41 c-80 -164 -1571 -3214 -1749 -3580 -123 -253 -224 -463 -224
-468 0 -5 3 -9 6 -9 16 0 3106 -423 3224 -442 166 -25 300 -34 300 -19 0 10
5094 11629 5141 11725 14 30 19 61 19 125 l0 86 -1476 420 c-811 230 -1478
423 -1480 427 -3 4 -42 8 -87 8 l-82 0 -969 -2278 c-533 -1252 -971 -2280
-975 -2284 -3 -4 -11 -4 -17 0 -9 6 -2832 4330 -2947 4515 l-30 47 -71 -1
c-42 0 -79 -6 -91 -13z"/>
</g>
</svg>
